<?xml version="1.0" encoding="UTF-8" standalone="no"?>
<svg
   xmlns:dc="http://purl.org/dc/elements/1.1/"
   xmlns:cc="http://creativecommons.org/ns#"
   xmlns:rdf="http://www.w3.org/1999/02/22-rdf-syntax-ns#"
   xmlns:svg="http://www.w3.org/2000/svg"
   xmlns="http://www.w3.org/2000/svg"
   xmlns:sodipodi="http://sodipodi.sourceforge.net/DTD/sodipodi-0.dtd"
   xmlns:inkscape="http://www.inkscape.org/namespaces/inkscape"
   id="svg4489"
   version="1.1"
   viewBox="0 0 64 64"
   height="64"
   width="64"
   sodipodi:docname="backup.svg"
   inkscape:version="0.92.0 r15299">
  <sodipodi:namedview
     pagecolor="#ffffff"
     bordercolor="#666666"
     borderopacity="1"
     objecttolerance="10"
     gridtolerance="10"
     guidetolerance="10"
     inkscape:pageopacity="0"
     inkscape:pageshadow="2"
     inkscape:window-width="1920"
     inkscape:window-height="1017"
     id="namedview4502"
     showgrid="false"
     inkscape:zoom="13.28125"
     inkscape:cx="32"
     inkscape:cy="32"
     inkscape:window-x="1912"
     inkscape:window-y="-8"
     inkscape:window-maximized="1"
     inkscape:current-layer="svg4489" />
  <metadata
     id="metadata4495">
    <rdf:RDF>
      <cc:Work
         rdf:about="">
        <dc:format>image/svg+xml</dc:format>
        <dc:type
           rdf:resource="http://purl.org/dc/dcmitype/StillImage" />
        <dc:title></dc:title>
      </cc:Work>
    </rdf:RDF>
  </metadata>
  <defs
     id="defs4493" />
  <path
     style="display:inline;fill:#f47c00;fill-opacity:1;stroke-width:1.33411765"
     id="path4485"
     d="M 56.032941,2.3166784 H 8.0047059 c -2.9484,0 -5.3364706,2.3880705 -5.3364706,5.3364705 V 56.685896 c 0,2.9484 2.3880706,5.283106 5.3364706,5.283106 H 56.032941 c 2.9484,0 5.336471,-2.348047 5.336471,-5.283106 V 7.6531489 c 0,-2.9484 -2.388071,-5.3364705 -5.336471,-5.3364705 z m 0,54.4092416 H 8.0047059 V 7.6131254 H 56.032941 Z"
     inkscape:connector-curvature="0" />
  <path
     id="path4487"
     d="M 0,-0.03764706 H 64.037647 V 64 H 0 Z"
     inkscape:connector-curvature="0"
     style="display:inline;fill:none;stroke-width:1.33411765" />
  <g
     style="display:inline"
     id="layer6"
     transform="matrix(1.3341176,0,0,1.3341176,0,-0.03764706)">
    <path
       id="path4534-3-7"
       d="M 21.853516,9.2617188 A 12.649412,5.3364706 0 0 0 9.2050781,14.597656 12.649412,5.3364706 0 0 0 21.853516,19.933594 12.649412,5.3364706 0 0 0 34.503906,14.597656 12.649412,5.3364706 0 0 0 21.853516,9.2617188 Z M 9.1992188,16.275391 v 0.04492 c 0.0018,-0.01498 0.00376,-0.02995 0.00586,-0.04492 z m 0,0.04492 v 4.126954 h 0.011719 c -0.00476,0.03579 -0.00867,0.0716 -0.011719,0.107422 -0.00186,2.947645 5.6614262,5.337663 12.6484372,5.33789 0.09104,3e-6 0.178947,-0.0051 0.269532,-0.0059 v -3.25 c 0,-0.371205 0.121267,-0.712142 0.322265,-0.992188 -0.197573,0.0039 -0.391958,0.01172 -0.591797,0.01172 C 14.862452,21.656064 9.1999159,19.267195 9.1992188,16.320312 Z m 25.2949222,-0.04492 c 0.0014,0.01497 0.0027,0.02994 0.0039,0.04492 v -0.04492 z m 0.0039,0.04492 c -4.65e-4,1.969289 -2.536535,3.684797 -6.298828,4.609376 h 6.253906 c 0.02055,-0.124608 0.045,-0.248184 0.04492,-0.375 -0.0024,-0.03582 -0.0057,-0.07163 -0.0098,-0.107422 h 0.0098 z m -25.2988222,5.70508 v 0.04492 c 0.0018,-0.01498 0.00376,-0.02995 0.00586,-0.04492 z m 0,0.04492 v 4.126954 h 0.011719 c -0.0048,0.03579 -0.0087,0.0716 -0.011719,0.107422 -0.0019,2.947645 5.6614262,5.337663 12.6484372,5.33789 0.09104,3e-6 0.178947,-0.0051 0.269532,-0.0059 v -4.236328 c -0.09056,8.04e-4 -0.178513,0.0059 -0.269532,0.0059 C 14.862452,27.406024 9.1999155,25.017197 9.1992188,22.070312 Z m 14.4609372,-0.01758 -0.33789,0.320313 v 15.589844 l 0.347656,0.320312 h 15.6875 l 0.341797,-0.375 V 24.972656 L 36.84375,22.052734 Z m 4.294922,0.990235 h 7.373047 v 4.779297 h -7.373047 z m 4.75,1.107422 v 2.476562 h 1.283203 v -2.476562 z m -23.5058592,3.625 v 0.04492 c 0.0018,-0.01498 0.00376,-0.02995 0.00586,-0.04492 z m 0,0.04492 v 4.126954 h 0.011719 c -0.0048,0.03579 -0.0087,0.0716 -0.011719,0.107422 -0.0019,2.947645 5.6614262,5.337663 12.6484372,5.33789 0.09104,3e-6 0.178947,-0.0051 0.269532,-0.0059 v -4.236328 c -0.09056,8.04e-4 -0.178513,0.0059 -0.269532,0.0059 C 14.862452,33.156025 9.1999155,30.767195 9.1992188,27.820312 Z M 26.207031,30.53125 H 36.84375 v 5.916016 H 26.207031 Z"
       style="display:inline;fill:#f47c00;fill-opacity:1;stroke:none;stroke-width:3.17977524;stroke-miterlimit:4;stroke-dasharray:none;stroke-opacity:1"
       inkscape:connector-curvature="0" />
  </g>
</svg>
